<?xml version="1.0" encoding="UTF-8"?>
<svg id="Layer_1" xmlns="http://www.w3.org/2000/svg" version="1.1" viewBox="0 0 295.2 37.4">
  <!-- Generator: Adobe Illustrator 29.0.1, SVG Export Plug-In . SVG Version: 2.1.0 Build 192)  -->
  <defs>
    <style>
      .st0 {
        fill: #fff;
      }
    </style>
  </defs>
  <path class="st0" d="M72.2,6.2v23.1h-3.8V12.5l-7,13.1c-.3.6-.8.9-1.5.9h-.6c-.7,0-1.2-.3-1.5-.9l-7.1-13.2v16.8h-3.8V6.2h4.1s.2,0,.3.2c0,0,.2.2.3.4l6.9,12.8c.2.3.3.7.5,1.1s.3.7.5,1.1c0-.4.3-.8.5-1.1.2-.4.3-.7.5-1.1l6.8-12.8c0-.2.2-.3.3-.4,0,0,.2-.2.3-.2,0,0,4.3,0,4.3,0Z"/>
  <path class="st0" d="M91.3,12.9l-8.9,20.9c0,.3-.3.5-.5.6s-.5.2-.9.2h-2.9l3.1-6.6-6.6-15.2h3.5c.3,0,.6,0,.7.2.2.1.3.3.4.5l3.5,8.5c0,.3.2.6.3.9,0,.3.2.6.2.9,0-.3.2-.6.3-.9,0-.3.2-.6.3-.9l3.3-8.5c0-.2.2-.4.4-.5.2-.1.4-.2.7-.2h3.2,0Z"/>
  <path class="st0" d="M116.8,23.9c.2,0,.4,0,.6.3l1.7,1.8c-.9,1.2-2.1,2.1-3.5,2.7s-3,.9-4.9.9-3.3-.3-4.6-.9c-1.4-.6-2.5-1.4-3.5-2.4s-1.7-2.3-2.2-3.7c-.5-1.5-.8-3-.8-4.8s.3-3.3.8-4.8c.6-1.4,1.3-2.7,2.3-3.7s2.2-1.9,3.6-2.4c1.4-.6,2.9-.9,4.6-.9s3.2.3,4.5.8c1.3.6,2.4,1.3,3.3,2.2l-1.4,2c0,.1-.2.2-.3.3,0,0-.3.1-.6.1s-.3,0-.5-.1c-.2,0-.4-.2-.6-.3s-.4-.3-.7-.4-.6-.3-.9-.4-.8-.2-1.2-.3h-1.6c-1,0-2,.2-2.8.6-.9.4-1.6.9-2.2,1.6-.6.7-1.1,1.6-1.4,2.6s-.5,2.2-.5,3.4.2,2.5.6,3.5.9,1.9,1.5,2.6,1.4,1.2,2.2,1.6c.9.4,1.8.6,2.8.6h1.6c.5,0,.9-.2,1.3-.3s.8-.3,1.1-.5c.4-.2.7-.5,1.1-.8,0,0,.2-.2.3-.2h.4v-.6h-.1Z"/>
  <path class="st0" d="M128.4,12.6c1.2,0,2.3.2,3.3.6,1,.4,1.9,1,2.6,1.7s1.3,1.6,1.6,2.7c.4,1,.6,2.2.6,3.5s-.2,2.5-.6,3.5c-.4,1-.9,1.9-1.6,2.7-.7.7-1.6,1.3-2.6,1.7-1,.4-2.1.6-3.3.6s-2.3-.2-3.3-.6-1.9-1-2.6-1.7-1.3-1.6-1.6-2.7c-.4-1-.6-2.2-.6-3.5s.2-2.5.6-3.5.9-1.9,1.6-2.7c.7-.7,1.6-1.3,2.6-1.7s2.1-.6,3.3-.6ZM128.4,26.5c1.4,0,2.4-.5,3-1.4.7-.9,1-2.3,1-4s-.3-3.1-1-4-1.7-1.4-3-1.4-2.4.5-3.1,1.4-1,2.3-1,4,.3,3.1,1,4,1.7,1.4,3.1,1.4Z"/>
  <path class="st0" d="M140.2,29.3v-13.4l-1.4-.2c-.3,0-.6-.2-.7-.3-.2-.2-.3-.4-.3-.7v-1.6h2.4v-.9c0-.9.1-1.8.4-2.5s.7-1.4,1.2-1.9,1.2-.9,1.9-1.2,1.6-.4,2.6-.4,1.5,0,2.1.3v2s-.1.3-.2.4c0,0-.2.2-.3.2h-.9c-.5,0-.9,0-1.3.2-.4,0-.7.3-.9.5s-.5.6-.6,1-.2.9-.2,1.5v.8h6.5v-1.5c0-.9.1-1.8.4-2.5s.7-1.4,1.2-1.9,1.2-.9,1.9-1.2,1.6-.4,2.6-.4h1.1c.3,0,.7,0,1,.2v2c-.1.3-.3.5-.5.6h-.9c-.3,0-.9,0-1.3.2-.4,0-.7.3-.9.5-.3.3-.5.6-.6,1s-.2.9-.2,1.5v1.3h4.3v2.8h-4.1v13.5h-4v-13.5h-6.4v13.5h-4,0Z"/>
  <path class="st0" d="M163.5,21.6c0,.8.2,1.6.4,2.2s.5,1.1.9,1.5.8.7,1.4.9c.5.2,1.1.3,1.8.3s1.2,0,1.7-.2c.5-.1.9-.3,1.2-.5s.7-.3.9-.5c.3-.1.5-.2.8-.2s.6.1.7.4l1.1,1.4c-.4.5-.9.9-1.5,1.3-.5.3-1.1.6-1.7.8-.6.2-1.2.4-1.8.4s-1.2.1-1.8.1c-1.1,0-2.2-.2-3.2-.6s-1.8-.9-2.6-1.7-1.3-1.7-1.7-2.8-.6-2.4-.6-3.8.2-2.2.5-3.2c.4-1,.9-1.8,1.6-2.6.7-.7,1.5-1.3,2.5-1.7s2.1-.6,3.3-.6,2,.2,2.9.5,1.6.8,2.3,1.4c.6.6,1.1,1.4,1.5,2.3.4.9.5,2,.5,3.2s0,1-.2,1.2-.4.3-.7.3h-10.2v.2h0ZM171.1,19.2c0-.5,0-1-.2-1.4-.1-.5-.4-.9-.6-1.2s-.7-.6-1.1-.8c-.4-.2-1-.3-1.5-.3-1.1,0-2,.3-2.7,1-.7.7-1.1,1.6-1.3,2.8h7.5,0Z"/>
  <path class="st0" d="M180.6,21.6c0,.8.2,1.6.4,2.2s.5,1.1.9,1.5.8.7,1.4.9c.5.2,1.1.3,1.8.3s1.2,0,1.7-.2c.5-.1.9-.3,1.2-.5s.7-.3.9-.5c.3-.1.5-.2.8-.2s.6.1.7.4l1.1,1.4c-.4.5-.9.9-1.5,1.3-.5.3-1.1.6-1.7.8-.6.2-1.2.4-1.8.4s-1.2.1-1.8.1c-1.1,0-2.2-.2-3.2-.6s-1.8-.9-2.6-1.7-1.3-1.7-1.7-2.8-.6-2.4-.6-3.8.2-2.2.5-3.2c.4-1,.9-1.8,1.6-2.6.7-.7,1.5-1.3,2.5-1.7s2.1-.6,3.3-.6,2,.2,2.9.5,1.6.8,2.3,1.4c.6.6,1.1,1.4,1.5,2.3.4.9.5,2,.5,3.2s0,1-.2,1.2-.4.3-.7.3h-10.2v.2h0ZM188.1,19.2c0-.5,0-1-.2-1.4-.1-.5-.4-.9-.6-1.2s-.7-.6-1.1-.8c-.4-.2-1-.3-1.5-.3-1.1,0-2,.3-2.7,1-.7.7-1.1,1.6-1.3,2.8h7.5,0Z"/>
  <path class="st0" d="M222.6,6.2v23.1h-4.3v-10.1h-10.9v10.1h-4.3V6.2h4.3v10h10.9V6.2h4.3Z"/>
  <path class="st0" d="M233.9,12.6c1.2,0,2.3.2,3.3.6,1,.4,1.9,1,2.6,1.7.7.7,1.3,1.6,1.6,2.7.4,1,.6,2.2.6,3.5s-.2,2.5-.6,3.5c-.4,1-.9,1.9-1.6,2.7-.7.7-1.6,1.3-2.6,1.7-1,.4-2.1.6-3.3.6s-2.3-.2-3.3-.6-1.9-1-2.6-1.7c-.7-.7-1.3-1.6-1.6-2.7-.4-1-.6-2.2-.6-3.5s.2-2.5.6-3.5c.4-1,.9-1.9,1.6-2.7.7-.7,1.6-1.3,2.6-1.7s2.1-.6,3.3-.6ZM233.9,26.5c1.4,0,2.4-.5,3-1.4s1-2.3,1-4-.3-3.1-1-4-1.7-1.4-3-1.4-2.4.5-3.1,1.4c-.7.9-1,2.3-1,4s.3,3.1,1,4,1.7,1.4,3.1,1.4Z"/>
  <path class="st0" d="M259.1,12.9v16.4h-2.4c-.5,0-.9-.2-1-.7l-.3-1.3c-.7.7-1.4,1.2-2.2,1.7-.8.4-1.8.6-2.9.6s-1.7-.2-2.4-.5-1.3-.7-1.7-1.3-.8-1.2-1.1-2c-.2-.8-.4-1.6-.4-2.5v-10.4h4v10.4c0,1,.2,1.8.7,2.3s1.2.8,2.1.8,1.3-.2,1.9-.5c.6-.3,1.2-.7,1.7-1.3v-11.9h4v.2h0Z"/>
  <path class="st0" d="M273,16.1c-.1.2-.2.3-.3.4s-.3.1-.4.1-.4,0-.6-.2c-.2-.1-.5-.2-.8-.4s-.6-.3-1-.4-.8-.2-1.3-.2c-.8,0-1.4.2-1.8.5s-.7.8-.7,1.3.1.6.3.9c.2.2.5.5.9.6.4.2.8.3,1.3.5.5.1,1,.3,1.5.5s1,.4,1.5.6.9.5,1.3.8.7.7.9,1.2c.2.5.3,1,.3,1.7s-.1,1.5-.4,2.2-.7,1.2-1.3,1.7c-.6.5-1.2.9-2.1,1.1-.8.3-1.8.4-2.8.4s-1.1,0-1.7-.2c-.5-.1-1.1-.2-1.6-.4-.5-.2-1-.4-1.4-.6s-.8-.5-1.1-.8l.9-1.5c.1-.2.3-.3.4-.4.2,0,.4-.1.6-.1s.5,0,.7.2c.2.1.5.3.8.4s.6.3,1,.4.9.2,1.5.2.9,0,1.2-.2c.3-.1.6-.3.8-.4.2-.2.4-.4.5-.6s.2-.5.2-.7c0-.4-.1-.7-.3-.9-.2-.2-.5-.5-.9-.6-.4-.2-.8-.3-1.3-.5s-1-.3-1.5-.5-1-.4-1.5-.6-.9-.5-1.3-.9-.7-.8-.9-1.3c-.2-.5-.3-1.1-.3-1.9s.1-1.3.4-1.9.7-1.1,1.2-1.6,1.2-.8,1.9-1.1c.8-.3,1.7-.4,2.7-.4s2.2.2,3.1.6,1.7.9,2.3,1.5l-.9,1.4h0Z"/>
  <path class="st0" d="M280.1,21.6c0,.8.2,1.6.4,2.2.2.6.5,1.1.9,1.5s.8.7,1.4.9c.5.2,1.1.3,1.8.3s1.2,0,1.7-.2c.5-.1.9-.3,1.2-.5.3-.2.7-.3.9-.5.3-.1.5-.2.8-.2s.6.1.7.4l1.1,1.4c-.4.5-.9.9-1.5,1.3-.5.3-1.1.6-1.7.8-.6.2-1.2.4-1.8.4s-1.2.1-1.8.1c-1.1,0-2.2-.2-3.2-.6s-1.8-.9-2.6-1.7-1.3-1.7-1.7-2.8-.6-2.4-.6-3.8.2-2.2.5-3.2c.4-1,.9-1.8,1.6-2.6.7-.7,1.5-1.3,2.5-1.7s2.1-.6,3.3-.6,2,.2,2.9.5,1.6.8,2.3,1.4c.6.6,1.1,1.4,1.5,2.3.4.9.5,2,.5,3.2s0,1-.2,1.2-.4.3-.7.3h-10.2v.2h0ZM287.7,19.2c0-.5,0-1-.2-1.4-.1-.5-.4-.9-.6-1.2s-.7-.6-1.1-.8-1-.3-1.5-.3c-1.1,0-2,.3-2.7,1-.7.7-1.1,1.6-1.3,2.8h7.5,0Z"/>
  <path class="st0" d="M14.9,2c0,1.7-.3,2.7-.5,3.6-.3,1-.5,2-.5,4.1s.5,2.9.9,3.9c.5,1.1,1.1,2.3,1.1,4.6s0,.7,0,1c.3-.4.7-.8,1.1-1.2,1.9-1.9,4.1-3.2,6.4-3.9h0c0-6.3-3.7-11.4-8.5-11.9v-.2Z"/>
  <path class="st0" d="M18.6,31.2c.9-.6,1.8-1.1,3.2-2.5,1.4-1.4,1.7-2.4,2.1-3.4.4-1.2.8-2.4,2.5-4,1.6-1.6,2.5-2.2,3.5-2.7.8-.5,1.5-.9,2.6-2-1.4-1.1-3.2-1.7-5.1-1.7-3.1,0-6.5,1.4-9.3,4.2-2.3,2.3-3.7,5.1-4,7.7h0c-.4,2.5.2,4.9,1.6,6.7,1.2-1.2,2.1-1.7,2.9-2.2h0Z"/>
  <path class="st0" d="M12.7,25.7c.3-1.2.7-2.5,1.3-3.7.2-.9.4-1.9.4-3.8s-.5-2.9-.9-3.9c-.5-1.1-1.1-2.3-1.1-4.6s.3-3.3.5-4.4c.2-.9.4-1.8.5-3.3-4.7.5-8.4,5.7-8.4,11.9s3.3,10.9,7.7,11.8Z"/>
  <path class="st0" d="M23.1,36c2.9-.4,5.7-1.8,8-4.1s3.7-5.1,4.1-8c.3-2.5-.3-4.8-1.6-6.4-1.2,1.2-2.1,1.7-2.9,2.2-.9.6-1.8,1.1-3.2,2.5-1.4,1.4-1.7,2.4-2.1,3.4-.4,1.2-.8,2.4-2.5,4-1.6,1.6-2.5,2.2-3.5,2.7-.8.5-1.5.9-2.7,2,1.7,1.4,3.9,1.9,6.4,1.6h0Z"/>
</svg>